# xmcd
#
# Track frame offsets:
#	150
#	16023
#	29778
#	37242
#	45711
#	62472
#	76725
#	86647
#	100939
#	118896
#	135951
#	154629
#
# Disc length: 2182 seconds
#
# Revision: 0
# Processed by: cddbd v1.5.2PL0 Copyright (c) Steve Scherf et al.
# Submitted via: EZCDAudioConverter 2.1.7.1
#
DISCID=9108840c
DTITLE=The Heliocentrics and Melvin Van Peebles - The Last Transmission
DYEAR=1900
DGENRE=
TTITLE0=Prologue
TTITLE1=Big Bang Reincarnation
TTITLE2=Searching For Signs Of Life
TTITLE3=Blue Mist
TTITLE4=The Cavern
TTITLE5=Transformation (Part1)
TTITLE6=Transformation (Part 2)
TTITLE7=Telepathic Routine
TTITLE8=The Dance
TTITLE9=Trust The Cosmos (Believe In The Universe)
TTITLE10=Infinite List (Toss The Dice)
TTITLE11=Epilogue
EXTD=
EXTT0=
EXTT1=
EXTT2=
EXTT3=
EXTT4=
EXTT5=
EXTT6=
EXTT7=
EXTT8=
EXTT9=
EXTT10=
EXTT11=
PLAYORDER=
